<?xml version="1.0" standalone="no"?>
<!DOCTYPE svg PUBLIC "-//W3C//DTD SVG 20010904//EN"
 "http://www.w3.org/TR/2001/REC-SVG-20010904/DTD/svg10.dtd">
<svg version="1.0" xmlns="http://www.w3.org/2000/svg"
 width="700.000000pt" height="700.000000pt" viewBox="0 0 700.000000 700.000000"
 preserveAspectRatio="xMidYMid meet">
<metadata>
Created by potrace 1.11, written by Peter Selinger 2001-2013
</metadata>
<g transform="translate(0.000000,700.000000) scale(0.100000,-0.100000)"
fill="#000000" stroke="none">
<path d="M2047 6864 c-313 -59 -542 -328 -602 -707 -3 -17 -9 -56 -14 -86 -10
-60 -7 -351 4 -421 31 -199 95 -434 156 -567 10 -24 19 -47 19 -52 0 -29 28
-16 93 41 137 121 300 246 432 330 63 41 99 62 230 132 204 111 619 240 870
271 28 4 57 8 65 10 8 2 40 7 70 10 30 4 57 9 59 11 18 17 -214 392 -315 509
-335 389 -732 581 -1067 519z"/>
<path d="M4850 5969 c-182 -46 -375 -174 -510 -339 -79 -95 -77 -86 -23 -106
179 -65 451 -218 595 -335 69 -56 318 -307 318 -320 0 -5 6 -9 13 -9 11 0 47
54 104 160 31 57 73 179 93 268 27 121 21 292 -12 387 -51 146 -144 245 -273
290 -75 26 -213 28 -305 4z"/>
<path d="M3287 5604 c-1 -1 -38 -5 -82 -8 -78 -7 -115 -12 -165 -21 -14 -3
-41 -7 -60 -10 -120 -19 -323 -87 -482 -163 -681 -322 -1141 -1027 -1216
-1862 -13 -155 -7 -440 13 -590 3 -19 7 -53 10 -75 5 -43 12 -76 49 -230 171
-721 620 -1357 1229 -1744 163 -103 307 -174 522 -254 128 -48 366 -100 525
-115 94 -9 334 -9 420 0 390 41 779 202 1081 449 78 63 230 216 284 284 22 28
43 52 46 55 7 7 101 140 114 161 73 125 95 166 128 234 98 199 186 479 213
670 2 17 7 44 10 60 26 152 26 609 0 750 -2 11 -7 40 -10 65 -18 122 -60 291
-108 439 -195 600 -587 1133 -1082 1470 -136 92 -167 110 -341 196 -322 158
-633 233 -991 239 -58 1 -106 1 -107 0z"/>
<path d="M1048 4175 c-2 -1 -28 -6 -58 -9 -191 -23 -385 -117 -499 -242 -237
-260 -127 -615 254 -815 88 -46 223 -91 320 -108 39 -7 80 -14 93 -17 23 -5
23 -3 16 43 -3 26 -8 56 -10 66 -24 137 -24 495 2 618 2 13 7 40 10 59 9 59
43 187 79 299 19 58 35 107 35 109 0 4 -238 1 -242 -3z"/>
<path d="M6045 3079 c4 -30 9 -65 10 -79 33 -242 23 -500 -26 -710 -11 -47
-22 -94 -25 -105 -2 -11 -19 -69 -39 -129 -19 -59 -35 -112 -35 -117 0 -8 245
-5 285 4 11 2 38 8 60 12 57 12 55 11 113 28 77 23 196 84 255 130 78 61 123
114 164 195 31 63 37 85 41 158 3 52 0 102 -9 132 -72 260 -373 471 -752 527
l-49 8 7 -54z"/>
<path d="M1934 1204 c-21 -32 -48 -79 -61 -104 -26 -50 -89 -228 -98 -275 -73
-401 101 -688 425 -699 235 -8 492 130 690 370 l59 71 -102 43 c-203 85 -377
186 -524 302 -81 65 -239 218 -310 302 l-41 49 -38 -59z"/>
</g>
</svg>
